<svg xmlns="http://www.w3.org/2000/svg" xmlns:xlink="http://www.w3.org/1999/xlink" viewBox="0 0 100 155" width="100" height="155" role="img">
    <defs>
        <clipPath id="card-back-inner" clipPathUnits="userSpaceOnUse">
            <path d="M 23 8 L 77 8 Q 92 8 92 23 L 92 132 Q 92 147 77 147 L 23 147 Q 8 147 8 132 L 8 23 Q 8 8 23 8" />
        </clipPath>
    </defs>
    <path d="M 20 0 L 80 0 Q 100 0 100 20 L 100 135 Q 100 155 80 155 L 20 155 Q 0 155 0 135 L 0 20 Q 0 0 20 0" fill="#ffffff" />
    <path d="M 23 8 L 77 8 Q 92 8 92 23 L 92 132 Q 92 147 77 147 L 23 147 Q 8 147 8 132 L 8 23 Q 8 8 23 8" fill="#202020" />
    <image href="/assets/UNO-logo.png" xlink:href="/assets/UNO-logo.png" x="-6" y="46" width="100" preserveAspectRatio="xMidYMid meet" clip-path="url(#card-back-inner)" style="transform: rotateZ(-5deg);"/>
</svg>